<?xml version="1.0" standalone="yes"?>
<svg version="1.0" xmlns="http://www.w3.org/2000/svg" viewBox="180 445 2945 2402" stroke="none">
  <filter id="chin-blur">
    <feGaussianBlur in="SourceGraphic" stdDeviation="50" />
  </filter>

  <defs>
    <clipPath id="chin-clip">
      <path
        d="M 1591 1799 l 78 196 l 95 122 l 126 55 l 105 20 l 163 -68 l 1021 71 l -380 648 l -210 -115 l -211 -102 l -217 17 l -244 78 l -217 21 l -326 -65 l -298 -7 l -275 28 l -224 111 l -295 -441 l 865 -183 l 108 38 l 139 -11 l 82 -81 l 85 -183 z" />
    </clipPath>
  </defs>

  <path id="fur" fill="#39f"
    d="M 574 2823 l -24 -71 l 10 -387 l -115 102 l -28 -44 l 58 -312 l -183 122 l -10 -54 l 91 -279 l -156 21 l 31 -89 l 146 -183 l 220 -247 l 272 -238 l -28 -51 l 102 -34 l -434 -488 l 17 -27 l 220 112 l 397 295 l 299 -204 l 220 -88 l 48 -3 l -51 115 l 193 -51 l -6 58 l 162 24 l -74 108 l 64 34 l 78 -68 l 27 31 l 218 -156 l 220 -153 l 271 -109 l 160 -33 l -570 502 l -68 129 l 109 0 l -51 67 l 332 231 l 211 258 l 132 227 l -24 24 l -193 -98 l 135 427 l -3 166 l -281 -176 l 101 261 l 21 217 l -38 10 l -179 -176 l -48 -7 l 58 173 l -187 -58 l -231 -27 l -366 112 l -159 10 l -380 -84 l -373 6 l -201 55 z" />

  <g fill="#9cf">
    <path id="ear-inner-left"
      d="M 2416 1185 l 44 -85 l -89 0 l 7 -61 l 401 -390 l 101 -92 l 82 58 l -41 47 l 71 58 l -85 44 l -95 492 l -74 135 z" />
    <path id="ear-inner-right"
      d="M 526 1473 l -95 -271 l -7 -408 l -57 -30 l 57 -95 l -54 -24 l 95 -105 l 488 509 l 0 34 l -95 24 l 28 67 z" />

    <g clip-path="url(#chin-clip)">
      <path id="chin" filter="url(#chin-blur)" d="M 942 2840 c 328 -767 191 -76 663 -915 q 374 533 1106 915 z" />
    </g>
  </g>

  <g fill="#000">
    <path id="outline"
      d="M 2895 469 c -251 79 -396 154 -615 320 c -79 60 -147 106 -150 102 c -3 -4 -14 -13 -25 -19 c -17 -9 -26 -5 -57 25 c -21 20 -40 34 -44 31 c -3 -4 7 -20 23 -35 c 42 -41 50 -79 21 -94 c -13 -7 -24 -12 -25 -11 c -2 1 -31 2 -64 2 c -48 0 -59 -3 -51 -13 c 13 -15 13 -29 0 -45 c -10 -12 -68 -10 -137 4 c -22 5 -23 3 -18 -30 c 11 -66 -35 -68 -202 -7 c -94 34 -288 150 -361 216 c -9 8 -21 10 -30 6 c -8 -4 -22 -7 -30 -6 c -8 0 -24 -9 -35 -21 c -19 -20 -109 -87 -147 -109 c -9 -6 -70 -47 -135 -91 c -174 -120 -295 -174 -427 -192 c -94 -12 -103 4 -31 52 c 30 20 55 38 55 41 c 0 3 -18 12 -41 21 c -27 12 -38 21 -35 31 c 3 8 6 19 6 24 c 0 5 14 9 30 9 c 27 0 29 2 21 19 c -6 10 -22 29 -35 42 c -14 13 -26 29 -26 36 c 0 15 32 33 57 33 c 16 0 18 10 18 97 c 1 276 13 362 72 510 l 24 62 l -78 97 c -159 197 -175 220 -204 280 c -49 102 -38 130 44 108 c 28 -7 53 -11 56 -9 c 2 3 -3 21 -12 41 c -26 54 -53 193 -49 251 c 3 43 7 51 23 50 c 10 -1 20 -6 22 -12 c 3 -5 33 -32 67 -59 l 62 -49 l -6 39 c -12 71 -24 258 -19 291 c 8 53 41 44 82 -22 c 19 -30 37 -55 40 -55 c 4 0 5 72 3 161 c -2 92 2 184 8 214 l 11 54 l 32 -11 c 18 -6 36 -15 41 -19 c 6 -5 18 -9 27 -9 c 10 0 19 -3 21 -8 c 4 -10 133 -66 183 -80 c 125 -34 305 -45 475 -29 c 148 14 176 19 255 40 c 58 16 109 22 185 22 c 98 0 112 -3 203 -38 c 111 -43 224 -67 313 -67 c 72 0 213 40 264 75 c 39 27 56 27 86 1 c 22 -18 22 -36 0 -104 c -12 -36 8 -26 86 44 c 103 92 94 87 124 67 c 26 -17 27 -18 21 -108 c -4 -49 -8 -97 -10 -105 c -14 -59 -31 -109 -46 -135 c -10 -17 -21 -43 -24 -57 l -7 -27 l 56 30 c 47 24 123 77 144 99 c 3 3 18 7 33 8 c 30 4 61 -24 49 -43 c -8 -12 -1 13 -66 -240 c -29 -116 -61 -227 -70 -249 c -9 -21 -16 -43 -16 -47 c 0 -5 33 9 74 31 c 41 23 86 43 99 46 c 41 7 43 -33 3 -107 c -74 -142 -99 -179 -195 -284 c -26 -28 -63 -75 -84 -106 l -39 -56 l 30 -59 c 34 -68 70 -210 104 -408 l 23 -139 l 42 -20 c 38 -18 59 -49 47 -68 c -2 -4 -18 -10 -34 -14 c -17 -4 -30 -8 -30 -10 c 0 -2 11 -16 25 -31 c 19 -21 22 -30 14 -45 c -5 -11 -19 -19 -29 -19 c -30 0 -24 -15 15 -41 c 54 -37 71 -100 27 -98 c -9 0 -57 13 -107 28 z m -1 63 c -271 193 -574 494 -574 571 c 0 33 11 39 49 26 c 55 -19 58 -2 4 23 c -29 14 -49 28 -45 32 c 3 4 34 20 67 35 c 109 51 297 181 370 257 c 149 155 190 208 258 334 c 36 67 38 73 16 57 c -105 -75 -195 -114 -216 -93 c -4 3 10 39 29 79 c 20 39 48 115 63 167 c 27 97 75 341 69 349 c -3 3 -17 -7 -32 -21 c -40 -37 -175 -124 -216 -139 c -53 -19 -60 -4 -30 59 c 45 94 95 264 101 342 l 6 75 l -64 -58 c -79 -72 -161 -127 -188 -127 c -27 0 -36 18 -18 38 c 23 27 40 64 47 105 c 8 42 9 42 -30 22 c -48 -25 -219 -65 -277 -65 c -64 0 -196 26 -235 46 c -15 8 -85 28 -155 45 c -137 34 -207 34 -311 4 c -102 -30 -336 -58 -487 -59 c -129 0 -161 3 -230 23 c -97 28 -184 64 -236 97 c -21 13 -44 24 -50 24 c -18 0 -6 -279 15 -365 c 10 -39 22 -78 27 -89 c 8 -14 6 -22 -9 -36 c -18 -17 -22 -17 -40 -4 c -12 8 -46 44 -77 80 c -30 36 -55 62 -55 57 c 1 -27 44 -206 60 -250 c 20 -54 23 -103 6 -103 c -14 0 -94 48 -146 87 c -24 19 -46 30 -48 24 c -6 -18 35 -131 78 -216 c 54 -108 54 -109 -23 -102 c -34 4 -73 10 -85 13 l -24 7 l 20 -40 c 11 -22 39 -63 61 -91 c 23 -28 41 -54 41 -57 c 0 -11 153 -181 249 -275 c 53 -52 134 -126 181 -163 c 122 -98 120 -96 120 -106 c 0 -5 -8 -12 -17 -15 c -27 -11 3 -26 50 -26 c 23 0 37 -5 37 -13 c 0 -47 -254 -351 -383 -459 c -32 -26 -55 -48 -52 -48 c 17 0 142 71 225 128 c 100 68 157 114 255 206 c 61 57 75 65 75 43 c 0 -6 8 0 18 15 c 16 27 62 40 62 18 c 0 -23 71 -87 176 -156 c 121 -80 216 -128 278 -139 l 38 -8 l -31 43 c -29 40 -42 100 -23 100 c 5 0 31 -11 58 -24 c 46 -22 117 -46 138 -46 c 5 0 2 8 -7 18 c -10 10 -17 26 -17 36 c 0 15 9 16 88 10 l 87 -6 l -37 32 c -21 17 -38 37 -38 45 c 0 16 92 85 113 85 c 9 0 21 -9 27 -20 c 9 -16 15 -18 30 -10 c 13 7 21 7 26 -1 c 3 -6 14 -9 24 -6 c 12 3 36 -13 72 -47 c 81 -76 144 -127 236 -190 c 80 -54 238 -136 299 -156 c 15 -5 66 -23 113 -39 c 47 -17 89 -30 94 -31 c 5 0 -17 19 -50 42 z m -2382 97 c 85 71 287 282 355 369 l 62 80 l -47 7 c -60 9 -64 12 -51 36 c 20 38 2 73 -60 117 c -32 22 -97 77 -143 121 l -84 80 l -26 -68 c -49 -126 -70 -227 -75 -376 c -3 -83 -1 -155 5 -177 c 8 -31 7 -39 -7 -52 c -10 -9 -23 -16 -30 -16 c -8 0 -3 -13 13 -34 c 32 -42 33 -66 4 -74 c -20 -5 -19 -7 11 -17 c 33 -11 33 -11 15 -30 c -33 -33 3 -11 58 34 z m 2418 -22 c 0 4 -12 19 -26 34 c -32 34 -27 54 18 63 l 33 7 l -37 20 c -30 15 -38 25 -38 47 c 0 78 -93 438 -133 514 l -30 58 l -31 -28 c -17 -15 -73 -53 -124 -85 c -50 -33 -92 -64 -92 -70 c 0 -6 6 -18 14 -26 c 9 -11 11 -23 5 -39 c -7 -18 -16 -22 -49 -22 l -41 0 l 22 -33 c 32 -45 293 -302 357 -350 c 30 -23 68 -54 84 -69 c 27 -26 68 -38 68 -21 z" />
    <path id="eye-left"
      d="M 2010 1230 c -72 23 -141 64 -193 114 c -32 31 -57 61 -55 68 c 6 16 46 17 52 1 c 3 -7 16 -13 30 -13 c 14 0 27 -4 31 -9 c 7 -12 125 -48 179 -55 c 48 -6 94 12 155 61 c 67 56 108 103 132 153 c 31 66 77 96 65 42 c -3 -15 -8 -36 -10 -47 c -6 -36 -124 -202 -181 -254 c -71 -64 -136 -84 -205 -61 z" />
    <path id="eye-right"
      d="M 1105 1337 c -96 63 -151 136 -200 266 c -29 77 -34 147 -10 147 c 8 0 15 -7 15 -15 c 0 -16 17 -50 35 -71 c 6 -6 21 -30 35 -54 c 69 -116 108 -166 155 -195 c 45 -28 55 -30 140 -29 c 80 1 96 5 132 27 c 23 15 44 31 48 37 c 11 18 25 11 25 -14 c 0 -18 -14 -33 -55 -60 c -76 -51 -117 -67 -194 -73 c -64 -5 -68 -4 -126 34 z" />
    <path id="mouth-nose"
      d="M 1535 1636 c -11 3 -51 12 -89 21 c -60 14 -277 108 -298 129 c -4 4 -3 13 3 21 c 10 11 15 11 33 0 c 12 -8 30 -16 41 -19 c 11 -4 53 -18 94 -33 l 74 -26 l 18 20 c 11 11 46 39 79 61 l 60 40 l -7 48 c -8 63 -43 148 -88 217 c -43 64 -57 73 -128 85 c -44 7 -65 4 -135 -20 c -69 -23 -84 -25 -89 -14 c -7 19 -11 16 76 54 c 66 28 82 32 141 28 c 105 -7 121 -21 236 -198 c 13 -19 28 -49 35 -65 c 8 -23 13 -26 18 -14 c 9 22 69 96 120 147 c 67 68 118 87 231 87 c 89 0 99 -2 155 -33 c 90 -49 100 -59 86 -76 c -15 -17 -34 -12 -80 22 c -33 25 -128 51 -187 52 c -42 0 -102 -31 -145 -77 c -48 -51 -117 -155 -133 -201 c -12 -34 -11 -40 13 -77 c 15 -22 35 -60 46 -83 l 19 -44 l 55 7 c 31 3 87 15 124 26 c 76 23 108 20 86 -7 c -16 -20 -44 -31 -139 -54 c -73 -19 -285 -34 -325 -24 z" />
  </g>
</svg>
